<mxfile host="app.diagrams.net" modified="2023-09-18T07:14:21.234Z" agent="Mozilla/5.0 (Windows NT 10.0; Win64; x64) AppleWebKit/537.36 (KHTML, like Gecko) Chrome/117.0.0.0 Safari/537.36" version="21.7.5" etag="98IxsiboihKlMkmlb0Mk" type="github">
  <diagram name="Page-1" id="CHw2wgoBrfi9WDpYUXVN">
    <mxGraphModel>
      <root>
        <mxCell id="0" />
        <mxCell id="1" parent="0" />
      </root>
    </mxGraphModel>
  </diagram>
</mxfile>
